<svg width="451" height="494" viewBox="0 0 451 494" fill="none" xmlns="http://www.w3.org/2000/svg">
<path fill-rule="evenodd" clip-rule="evenodd" d="M367.079 6.74543C357.268 10.3782 343.757 18.661 337.054 25.1491C330.356 31.6372 316.559 38.4565 306.397 40.3041C264.431 47.9343 216.323 81.4305 216.323 103.021C216.323 116.942 235.455 140.961 258.667 156.183C286.336 174.332 282.987 198.024 242.213 272.661C208.23 334.874 200.881 363.154 203.56 421.474C204.724 446.846 208.018 473.547 210.886 480.803L216.092 494H270.044C322.019 494 323.714 493.678 316.351 485.223C304.29 471.378 307.136 468.575 330.467 471.306C344.883 472.995 354.875 477.252 360.076 483.927C366.806 492.565 372.945 494 403.122 494H438.32L428.357 480.002L418.393 465.999L428.315 451.525C452.335 416.479 457.61 375.573 442.561 341.112C437.369 329.221 433.359 309.54 433.276 295.523C433.198 281.952 430.227 266.874 426.684 262.012C420.777 253.912 418.86 256.273 403.736 290.283C384.673 333.146 383.103 345.235 396.591 345.235C405.598 345.235 405.663 345.801 398.429 360.337C379.569 398.229 355.522 407.203 326.781 387.081C313.871 378.045 288.008 341.141 291.814 337.187C292.41 336.568 302.05 339.337 313.228 343.339C335.557 351.329 354.898 348.92 354.898 338.151C354.898 334.355 347.239 325.218 337.881 317.847C304.766 291.765 294.849 279.399 294.849 264.191C294.849 246.958 305.108 239.659 329.335 239.659C379.158 239.659 415.682 191.771 402.383 143.874C399.792 134.53 392.72 113.036 386.678 96.1054C378.373 72.8597 377.121 64.8263 381.555 63.2811C390.761 60.0706 401.09 35.4715 401.09 16.7511C401.09 -2.66522 396.3 -4.07605 367.079 6.74543ZM316.392 84.017C320.596 95.3999 310.743 103.424 301.916 95.8127C296.447 91.0954 295.985 88.0577 299.976 83.0573C306.895 74.4001 312.97 74.7551 316.392 84.017ZM73.9276 128.829C22.5301 147.271 -4.3304 193.024 0.570541 253.773C1.98401 271.274 5.70716 291.454 8.8482 298.618L14.5621 311.638L22.4008 293.445C40.628 251.148 82.4362 235.691 106.23 262.454C123.006 281.318 124.715 288.253 128.406 352.433C132.36 421.263 142.966 451.933 171.619 477.415C181.878 486.538 191.772 494 193.606 494C195.439 494 194.026 483.937 190.465 471.642C180.968 438.866 182.483 401.156 196.16 329.672C221.395 197.799 207.662 143.168 144.726 125.057C119.098 117.681 102.534 118.564 73.9276 128.829Z" fill="white"/>
</svg>
